<svg enable-background="new 0 0 48 48" height="48" viewBox="0 0 48 48" width="48" xmlns="http://www.w3.org/2000/svg"><path d="m14.438 40.8c-.956 0-1.793-.358-2.51-1.081-.718-.72-1.076-1.559-1.076-2.52v-33.599c0-.959.357-1.8 1.076-2.52.718-.72 1.554-1.08 2.51-1.08h26.294c.955 0 1.793.36 2.51 1.08.718.72 1.076 1.561 1.076 2.52v33.599c0 .961-.358 1.8-1.076 2.52-.717.723-1.555 1.081-2.51 1.081zm0-3.601h26.294v-33.599h-26.294zm-7.17 10.801c-.956 0-1.792-.359-2.511-1.08-.718-.72-1.075-1.562-1.075-2.52v-37.2h3.585v37.2h29.878v3.6zm7.17-10.801v-33.599z" fill="#5f6368"/></svg>