<svg enable-background="new 0 0 48 48" height="48" viewBox="0 0 48 48" width="48" xmlns="http://www.w3.org/2000/svg"><path d="m31.394 0h-19.246c-2.811 0-5.098 2.293-5.098 5.108v18.89h-.5c-1.135 0-2.055.924-2.055 2.062v12.483c0 1.138.92 2.06 2.055 2.06h.5v2.289c0 2.817 2.287 5.108 5.098 5.108h26.258c2.812 0 5.099-2.291 5.099-5.108v-30.802zm-24.356 32.019c0-3.653 2.607-5.688 5.848-5.688 1.256 0 2.209.254 2.639.478l-.493 1.923c-.491-.206-1.177-.396-2.034-.396-1.922 0-3.416 1.16-3.416 3.543 0 2.146 1.271 3.496 3.434 3.496.73 0 1.542-.16 2.018-.35l.366 1.891c-.444.223-1.446.461-2.749.461-3.706-.002-5.613-2.308-5.613-5.358zm31.369 12.852h-26.258c-1.088 0-1.975-.889-1.975-1.979v-2.289h24.479c1.137 0 2.055-.922 2.055-2.06v-12.483c0-1.138-.918-2.062-2.055-2.062h-24.478v-18.89c0-1.089.887-1.978 1.975-1.978l18.077-.02v6.693c0 1.955 1.584 3.543 3.536 3.543l6.546-.02.073 29.562c0 1.094-.885 1.983-1.975 1.983zm-18.75-12.151c-1.779-.621-2.939-1.604-2.939-3.162 0-1.829 1.525-3.228 4.052-3.228 1.209 0 2.099.254 2.733.541l-.539 1.955c-.43-.207-1.193-.511-2.242-.511s-1.559.478-1.559 1.034c0 .684.604.984 1.988 1.51 1.891.698 2.779 1.686 2.779 3.193 0 1.795-1.381 3.32-4.321 3.32-1.224 0-2.433-.317-3.035-.65l.492-2.003c.651.335 1.653.667 2.687.667 1.112 0 1.701-.46 1.701-1.159 0-.666-.511-1.048-1.797-1.507zm5.008-6.214h2.652l1.305 4.527c.364 1.271.698 2.495.952 3.83h.05c.271-1.287.604-2.559.967-3.781l1.369-4.576h2.573l-3.608 10.709h-2.828z" fill="#5f6368"/></svg>