<svg enable-background="new 0 0 48 48" height="48" viewBox="0 0 48 48" width="48" xmlns="http://www.w3.org/2000/svg"><path d="m31.393 0h-19.245c-2.812 0-5.1 2.294-5.1 5.109v18.89h-.497c-1.137 0-2.057.923-2.057 2.061v12.484c0 1.137.92 2.06 2.057 2.06h.498v2.288c0 2.818 2.289 5.108 5.1 5.108h26.258c2.812 0 5.1-2.29 5.1-5.108v-30.801zm-22.514 26.669h2.719l.914 1.909c.312.636.545 1.148.793 1.739h.031c.248-.668.449-1.135.713-1.739l.887-1.909h2.701l-2.951 5.107 3.105 5.354h-2.732l-.947-1.893c-.387-.73-.637-1.273-.93-1.879h-.032c-.219.604-.48 1.147-.809 1.879l-.869 1.893h-2.701l3.027-5.293zm29.527 18.202h-26.258c-1.088 0-1.975-.888-1.975-1.979v-2.289h24.479c1.135 0 2.055-.922 2.055-2.059v-12.484c0-1.138-.92-2.061-2.055-2.061h-24.478v-18.89c0-1.09.887-1.979 1.975-1.979l18.076-.02v6.693c0 1.955 1.584 3.543 3.537 3.543l6.545-.019.074 29.562c0 1.094-.885 1.982-1.975 1.982zm-12.806-9.725v1.987h-6.535v-10.464h2.375v8.478h4.16zm4.005-2.407c-1.738-.605-2.871-1.568-2.871-3.09 0-1.786 1.49-3.151 3.959-3.151 1.18 0 2.049.248 2.67.527l-.527 1.909c-.42-.201-1.164-.497-2.188-.497-1.025 0-1.521.467-1.521 1.011 0 .668.59.963 1.939 1.475 1.848.685 2.717 1.646 2.717 3.121 0 1.754-1.35 3.244-4.223 3.244-1.195 0-2.377-.312-2.965-.637l.479-1.955c.639.326 1.615.651 2.625.651 1.088 0 1.662-.45 1.662-1.135 0-.65-.498-1.022-1.756-1.473z" fill="#5f6368"/></svg>