<svg enable-background="new 0 0 48 48" height="48" viewBox="0 0 48 48" width="48" xmlns="http://www.w3.org/2000/svg"><g fill="#5f6368"><path d="m14.156 30.882c0-.798-.553-1.271-1.525-1.271-.398 0-.666.039-.809.074v2.561c.168.037.373.05.654.05 1.04-.002 1.68-.528 1.68-1.414z"/><path d="m20.188 29.636c-.436 0-.717.038-.883.076v5.665c.166.039.436.039.678.039 1.771.014 2.924-.963 2.924-3.031.013-1.798-1.04-2.749-2.719-2.749z"/><path d="m31.393 0h-19.245c-2.812 0-5.1 2.294-5.1 5.109v18.89h-.497c-1.137 0-2.057.923-2.057 2.062v12.483c0 1.138.92 2.06 2.057 2.06h.498v2.289c0 2.817 2.289 5.107 5.1 5.107h26.258c2.812 0 5.1-2.29 5.1-5.107v-30.802zm-21.506 28.312c.602-.103 1.449-.182 2.641-.182 1.205 0 2.064.232 2.643.695.551.436.922 1.154.922 2.003 0 .848-.281 1.565-.793 2.056-.668.629-1.654.911-2.811.911-.256 0-.486-.012-.666-.037v3.097h-1.938v-8.543zm28.519 16.559h-26.258c-1.088 0-1.975-.889-1.975-1.979v-2.289h24.479c1.135 0 2.055-.922 2.055-2.06v-12.482c0-1.139-.92-2.062-2.055-2.062h-24.478v-18.89c0-1.09.887-1.979 1.975-1.979l18.076-.02v6.693c0 1.955 1.584 3.543 3.537 3.543l6.545-.019.074 29.562c0 1.093-.885 1.982-1.975 1.982zm-21.064-8.055v-8.506c.717-.112 1.652-.181 2.641-.181 1.641 0 2.707.297 3.541.925.898.668 1.46 1.733 1.46 3.266 0 1.658-.604 2.801-1.436 3.508-.912.758-2.295 1.115-3.99 1.115-1.011 0-1.73-.063-2.216-.127zm13.994-5.036v1.594h-3.104v3.481h-1.961v-8.657h5.28v1.604h-3.319v1.979z"/></g></svg>