<svg enable-background="new 0 0 48 48" height="48" viewBox="0 0 48 48" width="48" xmlns="http://www.w3.org/2000/svg"><path d="m34.682 13.917v-7.922h-21.362v7.922h-3.6v-11.522h28.559v11.522zm-31.081 3.603h40.8zm35.94 5.7c.479 0 .898-.18 1.26-.54.359-.36.539-.78.539-1.261 0-.479-.18-.899-.539-1.261-.361-.36-.781-.54-1.26-.54-.482 0-.9.18-1.262.54-.359.36-.539.781-.539 1.261s.18.9.539 1.261c.362.36.78.54 1.262.54zm-4.859 18.786v-11.524h-21.362v11.522zm3.597 3.599h-28.558v-10.561h-9.721v-14.765c0-1.802.61-3.313 1.83-4.533 1.22-1.219 2.729-1.829 4.529-1.829h35.279c1.803 0 3.312.61 4.531 1.829 1.221 1.22 1.83 2.73 1.83 4.533v14.765h-9.721v10.561zm6.119-14.164v-11.173c0-.792-.264-1.448-.793-1.969-.527-.521-1.186-.779-1.967-.779h-35.279c-.781 0-1.438.264-1.966.793-.528.528-.793 1.185-.793 1.967v11.164h6.12v-4.562h28.559v4.562h6.119z" fill="#5f6368"/></svg>