<svg version="1.1" id="Layer_1" xmlns="http://www.w3.org/2000/svg" xmlns:xlink="http://www.w3.org/1999/xlink" x="0px" y="0px"
	 width="860px" height="860px" viewBox="0 0 860 860" enable-background="new 0 0 860 860" xml:space="preserve">
<g>
	<ellipse fill="#B5D7FF" cx="430" cy="430" rx="430" ry="430"/>
	<g>
		<rect x="104.693" y="155.673" fill="#FFFFFF" width="650.581" height="465.718"/>
		<path fill="#161E2E" d="M770.783,96.977H89.218c-22.787-0.326-41.574,17.783-42.088,40.566V639.36
			c0.514,22.783,19.301,40.892,42.088,40.565h681.565c22.793,0.344,41.592-17.774,42.087-40.565V137.543
			C812.375,114.751,793.576,96.633,770.783,96.977L770.783,96.977z M755.308,621.456H104.564V155.673h650.743V621.456z"/>
		<g>
			<polygon fill="#161E2E" points="630.177,793.66 430.001,793.66 229.856,793.66 267.121,714.794 430.001,714.794 592.881,714.794 
							"/>
			<rect x="355.181" y="680.056" fill="#484E5B" width="149.704" height="72.909"/>
			<rect x="229.856" y="793.66" fill="#484E5B" width="400.32" height="21.367"/>
		</g>
		<path fill="#282D33" d="M469.628,655.482h-79.223c-2.575,0-4.662-2.087-4.662-4.662s2.087-4.662,4.662-4.662h79.223
			c2.575,0,4.662,2.087,4.662,4.662S472.203,655.482,469.628,655.482z"/>
		<g>
			<path fill="#DE1B29" d="M348.712,194.577v156.12c27.676,0.013,52.669,16.555,63.494,42.024l143.685-60.905
				C520.627,248.639,439.054,194.603,348.712,194.577L348.712,194.577z"/>
			<path fill="#FFBB33" d="M367.289,485.854l29.183,104.298c94.184-26.346,149.175-124.053,122.83-218.236
				c-2.056-7.347-4.584-14.553-7.568-21.574l-99.526,42.379c14.855,34.925-1.413,75.28-36.339,90.136
				C373.077,484.043,370.21,485.044,367.289,485.854L367.289,485.854z"/>
			<path fill="#00A251" d="M348.712,350.696V242.54c-35.887-0.023-70.926,10.901-100.441,31.316l61.361,89.072
				C321.11,354.971,334.746,350.705,348.712,350.696L348.712,350.696z"/>
			<path fill="#004AA0" d="M279.737,419.721c-0.021-22.704,11.165-43.958,29.895-56.793l-61.361-89.072l0,0l-27.154-39.538
				C118.744,304.497,92.644,444.38,162.822,546.754c6.823,9.954,14.437,19.342,22.768,28.071l111.659-109.223
				C285.939,453,279.701,436.654,279.737,419.721L279.737,419.721z"/>
			<path fill="#484E5B" d="M348.712,488.696c-19.541,0.014-38.163-8.291-51.209-22.841l-50.093,48.978
				c34.774,38.849,88.927,53.996,138.811,38.827l-18.931-67.552C361.244,487.817,354.993,488.688,348.712,488.696L348.712,488.696z"
				/>
		</g>
		<g>
			<path fill="#CCD5D5" d="M595.405,208.963h-12.949c-5.522,0.036-9.987,4.513-10.004,10.036v348.616
				c0.018,5.518,4.486,9.986,10.004,10.004h12.949c5.524-0.018,10.002-4.48,10.037-10.004V219
				C605.407,213.471,600.935,208.999,595.405,208.963L595.405,208.963z"/>
			<path fill="#002C68" d="M572.743,231.108v336.507c0.019,5.519,4.486,9.987,10.004,10.005h12.95
				c5.523-0.018,10.001-4.48,10.036-10.005V231.108H572.743z"/>
			<path fill="#004AA0" d="M572.743,285.822v281.664c0.019,5.519,4.486,9.986,10.004,10.004h12.95
				c5.523-0.018,10.001-4.48,10.036-10.004V285.822H572.743z"/>
		</g>
		<g>
			<path fill="#CCD5D5" d="M643.516,208.963h12.788c5.543,0,10.036,4.493,10.036,10.036v348.584c0,5.543-4.493,10.036-10.036,10.036
				h-12.788c-5.543,0-10.036-4.493-10.036-10.036V219C633.479,213.457,637.973,208.963,643.516,208.963z"/>
			<path fill="#007538" d="M633.479,334.158v233.457c0,5.526,4.479,10.005,10.003,10.005h12.95
				c5.518-0.019,9.986-4.487,10.004-10.005V334.158H633.479L633.479,334.158z"/>
			<path fill="#00A251" d="M633.479,388.517v179.099c0,5.526,4.479,10.005,10.003,10.005h12.95
				c5.518-0.019,9.986-4.487,10.004-10.005V388.517H633.479L633.479,388.517z"/>
		</g>
		<g>
			<path fill="#CCD5D5" d="M717.104,208.963h-12.949c-5.536,0.018-10.02,4.501-10.037,10.036v348.616
				c0.018,5.53,4.506,10.005,10.037,10.004h12.949c5.523-0.018,10.001-4.48,10.036-10.004V219
				C727.105,213.471,722.633,208.999,717.104,208.963L717.104,208.963z"/>
			<path fill="#910B11" d="M694.28,299.193v268.422c0.018,5.531,4.506,10.005,10.036,10.005h12.95
				c5.523-0.018,10.001-4.48,10.037-10.005V299.193H694.28L694.28,299.193z"/>
			<path fill="#DE1B29" d="M694.28,356.659v211.119c0.018,5.531,4.506,10.005,10.036,10.005h12.95
				c5.523-0.018,10.001-4.481,10.037-10.005V356.659H694.28L694.28,356.659z"/>
		</g>
	</g>
</g>
</svg>
