<svg viewBox="0 0 512 512" xmlns="http://www.w3.org/2000/svg"><path d="m491.1 425.8c0 26.5-8.5 47.8-24.7 63.1s-37.5 23-64 23h-291.9c-27.3 0-48.6-7.7-64.9-23-16.2-15.4-24.7-36.7-24.7-63.1 0-11.9 0-23 .9-34.1s2.6-23 4.3-36.7 5.1-24.7 8.5-35.8 8.5-22.2 14.5-32.4 12.8-19.6 20.5-27.3 17.1-13.7 28.2-17.9 23.9-6.8 37.5-6.8c1.7 0 6.8 2.6 13.7 6.8s15.4 10.2 24.7 16.2c9.4 6 21.3 11.1 35.8 16.2s29.9 6.8 44.4 6.8 29.9-2.6 44.4-6.8c14.5-5.1 26.5-10.2 35.8-16.2 9.4-6 17.9-11.1 24.7-16.2s11.9-6.8 13.7-6.8c13.7 0 25.6 2.6 37.5 6.8s20.5 10.2 28.2 17.9 14.5 16.2 20.5 27.3 11.1 21.3 14.5 32.4 6.8 23 8.5 35.8 4.3 24.7 4.3 36.7 5.1 22.2 5.1 34.1zm-106.7-297.8c0 35-12.8 65.7-37.5 90.5-24.7 24.7-55.5 37.5-90.5 37.5s-65.7-12.8-90.5-37.5-37.5-55.5-37.5-90.5 12.8-65.7 37.5-90.5 55.5-37.5 90.5-37.5 65.7 12.8 90.5 37.5c24.7 24.8 37.5 55.5 37.5 90.5z" fill="#64748b"/></svg>