<svg enable-background="new 0 0 300 80" height="80" viewBox="0 0 300 80" width="300" xmlns="http://www.w3.org/2000/svg"><path d="m76.623.296v79.408h-74.738c-1.146 0-2.076-.623-2.076-1.395v-76.621c0-.77.93-1.394 2.076-1.394z" fill="#79829a"/><path d="m-.191 20.537h76.812v19.723h-76.812z" fill="#6a758e"/><path d="m-.191 59.981h76.812v19.723h-76.812z" fill="#6a758e"/><path d="m12.783 8.601h43.598c.572 0 1.037.465 1.037 1.037v3.114c0 .573-.465 1.038-1.037 1.038h-43.598c-.572 0-1.037-.465-1.037-1.038v-3.114c0-.573.465-1.037 1.037-1.037z" fill="#c9cedb"/><path d="m12.783 27.804h29.064c.572 0 1.038.465 1.038 1.038v3.114c0 .572-.466 1.038-1.038 1.038h-29.064c-.572 0-1.037-.466-1.037-1.038v-3.114c0-.573.465-1.038 1.037-1.038z" fill="#c9cedb"/><path d="m12.783 67.249h37.889c.572 0 1.037.464 1.037 1.038v3.114c0 .572-.465 1.037-1.037 1.037h-37.889c-.572 0-1.037-.465-1.037-1.037v-3.114c0-.574.465-1.038 1.037-1.038z" fill="#c9cedb"/><path d="m12.783 47.526h37.889c.572 0 1.037.463 1.037 1.037v3.114c0 .573-.465 1.038-1.037 1.038h-37.889c-.572 0-1.037-.465-1.037-1.038v-3.114c0-.574.465-1.037 1.037-1.037z" fill="#c9cedb"/><path d="m78.961.296h220.848c.859 0 0 .624 0 1.393v76.623c0 .771.859 1.394 0 1.394h-220.848c-1.291 0-2.338-.937-2.338-2.089v-75.231c0-1.155 1.047-2.09 2.338-2.09z" fill="#fff"/><path d="m76.623 20.537h223.186v19.723h-223.186z" fill="#f6f7fa"/><path d="m76.623 59.981h223.186v19.723h-223.186z" fill="#f6f7fa"/><path d="m137.346 8.601h-43.596c-.573 0-1.039.465-1.039 1.037v3.114c0 .573.466 1.038 1.039 1.038h43.596c.574 0 1.039-.465 1.039-1.038v-3.114c0-.573-.465-1.037-1.039-1.037z" fill="#787a8d"/><path d="m214.16 8.601h-43.598c-.574 0-1.037.465-1.037 1.037v3.114c0 .573.463 1.038 1.037 1.038h43.598c.572 0 1.037-.465 1.037-1.038v-3.114c0-.573-.465-1.037-1.037-1.037z" fill="#787a8d"/><g fill="#c9cedb"><path d="m101.016 27.804h29.064c.572 0 1.037.465 1.037 1.038v3.114c0 .572-.465 1.038-1.037 1.038h-29.064c-.574 0-1.038-.466-1.038-1.038v-3.114c0-.573.464-1.038 1.038-1.038z"/><path d="m177.83 27.804h29.064c.572 0 1.037.465 1.037 1.038v3.114c0 .572-.465 1.038-1.037 1.038h-29.064c-.574 0-1.039-.466-1.039-1.038v-3.114c0-.573.465-1.038 1.039-1.038z"/><path d="m96.345 47.526h38.405c.574 0 1.039.463 1.039 1.037v3.114c0 .573-.465 1.038-1.039 1.038h-38.405c-.574 0-1.038-.465-1.038-1.038v-3.114c0-.574.464-1.037 1.038-1.037z"/><path d="m173.158 47.526h38.406c.574 0 1.039.463 1.039 1.037v3.114c0 .573-.465 1.038-1.039 1.038h-38.406c-.574 0-1.037-.465-1.037-1.038v-3.114c0-.574.463-1.037 1.037-1.037z"/><path d="m96.345 67.249h38.405c.574 0 1.039.464 1.039 1.038v3.114c0 .572-.465 1.037-1.039 1.037h-38.405c-.574 0-1.038-.465-1.038-1.037v-3.114c0-.574.464-1.038 1.038-1.038z"/><path d="m173.158 67.249h38.406c.574 0 1.039.464 1.039 1.038v3.114c0 .572-.465 1.037-1.039 1.037h-38.406c-.574 0-1.037-.465-1.037-1.037v-3.114c0-.574.463-1.038 1.037-1.038z"/></g><path d="m286.52 8.081h-43.598c-.574 0-1.037.465-1.037 1.038v3.114c0 .572.463 1.037 1.037 1.037h43.598c.572 0 1.037-.465 1.037-1.037v-3.114c0-.573-.465-1.038-1.037-1.038z" fill="#787a8d"/><path d="m250.189 27.284h29.062c.574 0 1.039.464 1.039 1.037v3.115c0 .572-.465 1.037-1.039 1.037h-29.062c-.574 0-1.039-.465-1.039-1.037v-3.115c0-.572.465-1.037 1.039-1.037z" fill="#c9cedb"/><path d="m283.924 52.196h-38.406" fill="#c9cedb"/><path d="m245.518 66.729h38.406c.574 0 1.037.463 1.037 1.037v3.114c0 .573-.463 1.038-1.037 1.038h-38.406c-.574 0-1.037-.465-1.037-1.038v-3.114c-.001-.574.462-1.037 1.037-1.037z" fill="#c9cedb"/></svg>