<svg enable-background="new 0 0 128 128" height="128" viewBox="0 0 128 128" width="128"
     xmlns="http://www.w3.org/2000/svg">
    <path d="m111.683 16.459c-10.695-10.6-24.625-16.459-39.343-16.459-1.571 0-2.856 1.294-2.856 2.917v.03 53.39c-.058 1.589 1.166 2.916 2.738 2.944h.057 52.809c1.602 0 2.913-1.324 2.913-2.944 0-14.873-5.771-29.036-16.291-39.811.004-.035.004-.035-.027-.067zm4.082 15.167-21.537 21.763h-15.068l30.338-30.655c2.39 2.737 4.488 5.711 6.267 8.892zm-40.452 2.178 21.275-21.554c3.177 1.767 6.15 3.885 8.861 6.302l-30.136 30.478zm15.739-24.234-15.739 15.901v-19.492c5.392.354 10.724 1.558 15.739 3.591zm11.422 43.819 15.974-16.139c2.099 5.153 3.321 10.6 3.644 16.139z"
          fill="#4c9c8d"/>
    <g fill="#308af4">
        <path d="m113.649 65.326c-.358-.021-.698-.019-.995-.016l-.313.004-11.027-.004c-12.683-.003-25.364-.003-38.043-.009v-25.483l-.01-.893v-6.174c0-6.371.002-12.742-.004-19.112 0-1.623-.418-2.826-1.269-3.679-.851-.852-2.041-1.268-3.66-1.246-4.84.045-9.546.667-13.983 1.847-13.618 3.616-24.686 11.194-32.903 22.531-9.148 12.621-12.84 26.982-10.969 42.686 1.196 10.038 4.817 19.323 10.764 27.596 6.151 8.555 14.076 15.077 23.555 19.387 7.649 3.477 15.773 5.239 24.15 5.239 1.607 0 3.244-.066 4.865-.195 9.126-.727 17.783-3.554 25.73-8.399 6.34-3.868 11.819-8.813 16.276-14.699 7.644-10.082 11.755-21.705 12.218-34.539.099-2.821-1.58-4.676-4.382-4.842zm-58.873-38.712.004 3.43v7.294c0 10.013-.004 20.367.017 30.585 0 .4-.064.558-.34.839-8.605 8.666-17.339 17.493-25.789 26.029l-7.411 7.488c-.683-.769-1.33-1.504-1.922-2.274-3.479-4.533-6.149-9.401-7.929-14.466-2.056-5.85-3.042-12.089-2.921-18.532.098-5.344 1.133-10.763 3.072-16.114 3.002-8.266 7.842-15.36 14.39-21.09 7.271-6.358 15.698-10.342 25.056-11.84.812-.131 1.665-.222 2.495-.31.424-.045.854-.091 1.289-.143-.016 3.05-.013 6.122-.011 9.104zm54.481 47.268c-1.089 9.668-4.582 18.362-10.394 25.857-6.647 8.574-15.273 14.511-25.634 17.649-6.121 1.854-12.476 2.469-18.888 1.83-6.935-.688-13.416-2.669-19.262-5.886-2.656-1.462-5.253-3.203-7.745-5.196.772-.729 1.512-1.428 2.251-2.175 12.445-12.554 22.485-22.697 31.592-31.928.135-.138.169-.164.427-.164 13.381.012 26.763.012 40.146.012h7.507z"/>
        <path d="m39.725 28.38c1.07.136 1.842.707 2.195 1.698.34.964.139 2.008-.706 2.6-1.312.923-2.737 1.687-4.058 2.595-9.628 6.62-15.597 15.694-17.705 27.28-.42 2.317-.487 4.702-.683 7.06-.141 1.714-1.118 2.763-2.584 2.684-1.399-.074-2.315-1.146-2.289-2.759.058-3.562.443-7.087 1.287-10.555 2.465-10.111 7.649-18.52 15.635-25.083 2.305-1.896 4.937-3.394 7.445-5.031.417-.27.973-.331 1.463-.489z"/>
        <path d="m48.044 25.07c1.318-.006 2.445 1.126 2.42 2.432-.023 1.36-1.153 2.465-2.521 2.478-1.305.012-2.459-1.116-2.468-2.409-.013-1.393 1.118-2.497 2.569-2.501z"/>
    </g>
</svg>